<svg width="50" height="50" viewBox="0 0 50 50" fill="none" xmlns="http://www.w3.org/2000/svg">
<path d="M1 9V37.6154H25.7309C25.2217 36.0764 24.9628 34.4664 24.9641 32.8462H10.5856C10.5856 31.5813 10.0807 30.3682 9.18184 29.4738C8.28301 28.5794 7.06394 28.0769 5.79281 28.0769V18.5385C8.45282 18.5385 10.5856 16.4162 10.5856 13.7692H34.5497C34.5497 15.0341 35.0546 16.2472 35.9535 17.1416C36.8523 18.036 38.0714 18.5385 39.3425 18.5385V18.6815C40.9481 18.6815 42.5537 18.9677 44.1353 19.4923V9H1ZM22.5676 16.1538C18.4938 16.2254 15.3784 19.2538 15.3784 23.3077C15.3784 27.3615 18.4938 30.3185 22.5676 30.4615C23.4783 30.4615 24.4129 30.2708 25.2995 29.9131C25.9466 27.29 27.025 24.81 29.685 22.3777C29.3974 19.2062 26.3779 16.0823 22.5676 16.1538ZM45.645 23.9515L36.3709 33.2515L33.1358 29.9846L29.7569 33.3708L36.347 40L49 27.3138L45.645 23.9515Z" fill="black"/>
<path d="M36.3709 33.2515L45.645 23.9515L49 27.3138L36.347 40L29.7569 33.3708L33.1358 29.9846L36.3709 33.2515Z" fill="#C0028A"/>
</svg>
