<svg width="12" height="16" viewBox="0 0 12 16" fill="none" xmlns="http://www.w3.org/2000/svg">
<path d="M11.2 0.100831L10 1.50068L8.3 0.100831C8.21366 0.0354418 8.10831 5.3463e-05 8 5.3463e-05C7.89169 5.3463e-05 7.78634 0.0354418 7.7 0.100831L6 1.50068L4.3 0.100831C4.21366 0.0354418 4.10831 5.3463e-05 4 5.3463e-05C3.89169 5.3463e-05 3.78634 0.0354418 3.7 0.100831L2 1.50068L0.8 0.100831C0.46875 -0.146018 0 0.0883324 0 0.500789V15.4992C0 15.9117 0.46875 16.146 0.8 15.8992L2 14.4993L3.7 15.8992C3.78634 15.9646 3.89169 15.9999 4 15.9999C4.10831 15.9999 4.21366 15.9646 4.3 15.8992L6 14.4993L7.7 15.8992C7.78634 15.9646 7.89169 15.9999 8 15.9999C8.10831 15.9999 8.21366 15.9646 8.3 15.8992L10 14.4993L11.2 15.8992C11.5281 16.146 12 15.9117 12 15.4992V0.500789C12 0.0883324 11.5312 -0.146018 11.2 0.100831ZM10 11.2497C10 11.3871 9.8875 11.4996 9.75 11.4996H2.25C2.1125 11.4996 2 11.3871 2 11.2497V10.7497C2 10.6122 2.1125 10.4997 2.25 10.4997H9.75C9.8875 10.4997 10 10.6122 10 10.7497V11.2497ZM10 8.24997C10 8.38746 9.8875 8.49995 9.75 8.49995H2.25C2.1125 8.49995 2 8.38746 2 8.24997V7.75003C2 7.61254 2.1125 7.50005 2.25 7.50005H9.75C9.8875 7.50005 10 7.61254 10 7.75003V8.24997ZM10 5.25029C10 5.38777 9.8875 5.50026 9.75 5.50026H2.25C2.1125 5.50026 2 5.38777 2 5.25029V4.75034C2 4.61286 2.1125 4.50037 2.25 4.50037H9.75C9.8875 4.50037 10 4.61286 10 4.75034V5.25029Z" fill="white"/>
</svg>
